<?xml version="1.0" encoding="UTF-8"?>
<!DOCTYPE svg PUBLIC "-//W3C//DTD SVG 1.1//EN" "http://www.w3.org/Graphics/SVG/1.1/DTD/svg11.dtd">
<svg xmlns="http://www.w3.org/2000/svg" version="1.1" width="225px" height="225px" style="shape-rendering:geometricPrecision; text-rendering:geometricPrecision; image-rendering:optimizeQuality; fill-rule:evenodd; clip-rule:evenodd" xmlns:xlink="http://www.w3.org/1999/xlink">
<g><path style="opacity:1" fill="#fdfefe" d="M -0.5,-0.5 C 74.5,-0.5 149.5,-0.5 224.5,-0.5C 224.5,74.5 224.5,149.5 224.5,224.5C 149.5,224.5 74.5,224.5 -0.5,224.5C -0.5,149.5 -0.5,74.5 -0.5,-0.5 Z"/></g>
<g><path style="opacity:1" fill="#40c0c2" d="M 95.5,2.5 C 150.615,-1.5393 190.115,21.1274 214,70.5C 230.494,118.331 220.661,159.831 184.5,195C 148.231,223.66 108.565,229.327 65.5,212C 24.7334,190.825 3.73343,157.158 2.5,111C 4.74601,62.5025 28.0793,28.5025 72.5,9C 80.2519,6.64949 87.9186,4.48282 95.5,2.5 Z"/></g>
<g><path style="opacity:1" fill="#fdfefe" d="M 167.5,106.5 C 159,98.9242 149,95.2575 137.5,95.5C 144.67,88.1907 144.003,81.6907 135.5,76C 119.075,75.0304 102.741,75.3637 86.5,77C 84.6217,78.5429 83.1217,80.3762 82,82.5C 81.0241,102.923 81.3575,123.256 83,143.5C 84.5429,145.378 86.3762,146.878 88.5,148C 104.167,148.667 119.833,148.667 135.5,148C 143.827,142.391 144.493,136.058 137.5,129C 136.5,128.667 135.5,128.333 134.5,128C 123.505,127.5 112.505,127.333 101.5,127.5C 101.5,117.167 101.5,106.833 101.5,96.5C 112.833,96.5 124.167,96.5 135.5,96.5C 147,98.0823 156.666,103.082 164.5,111.5C 178.342,133.181 176.009,153.015 157.5,171C 151.478,175.231 144.811,177.897 137.5,179C 119.833,179.667 102.167,179.667 84.5,179C 66.2173,174.384 55.0506,162.884 51,144.5C 50.3333,123.167 50.3333,101.833 51,80.5C 54.5958,61.5697 65.7625,49.7363 84.5,45C 102.5,44.3333 120.5,44.3333 138.5,45C 155.286,48.4528 166.453,58.2861 172,74.5C 174.978,85.9098 173.478,96.5765 167.5,106.5 Z"/></g>
<g><path style="opacity:1" fill="#43c1c3" d="M 137.5,95.5 C 136.508,95.3284 135.842,95.6618 135.5,96.5C 124.167,96.5 112.833,96.5 101.5,96.5C 101.5,106.833 101.5,117.167 101.5,127.5C 112.505,127.333 123.505,127.5 134.5,128C 135.5,128.333 136.5,128.667 137.5,129C 144.493,136.058 143.827,142.391 135.5,148C 119.833,148.667 104.167,148.667 88.5,148C 86.3762,146.878 84.5429,145.378 83,143.5C 81.3575,123.256 81.0241,102.923 82,82.5C 83.1217,80.3762 84.6217,78.5429 86.5,77C 102.741,75.3637 119.075,75.0304 135.5,76C 144.003,81.6907 144.67,88.1907 137.5,95.5 Z"/></g>
<g><path style="opacity:1" fill="#dee2e6" d="M 135.5,96.5 C 135.842,95.6618 136.508,95.3284 137.5,95.5C 149,95.2575 159,98.9242 167.5,106.5C 166.752,108.332 165.752,109.999 164.5,111.5C 156.666,103.082 147,98.0823 135.5,96.5 Z"/></g>
</svg>
